<?xml version="1.0" encoding="UTF-8" standalone="no"?>
<!-- Generator: Adobe Illustrator 16.0.0, SVG Export Plug-In . SVG Version: 6.00 Build 0)  -->

<svg
   xmlns:dc="http://purl.org/dc/elements/1.1/"
   xmlns:cc="http://creativecommons.org/ns#"
   xmlns:rdf="http://www.w3.org/1999/02/22-rdf-syntax-ns#"
   xmlns:svg="http://www.w3.org/2000/svg"
   xmlns="http://www.w3.org/2000/svg"
   xmlns:sodipodi="http://sodipodi.sourceforge.net/DTD/sodipodi-0.dtd"
   xmlns:inkscape="http://www.inkscape.org/namespaces/inkscape"
   version="1.1"
   id="Layer_1"
   x="0px"
   y="0px"
   width="16"
   height="16"
   viewBox="0 0 16 16.000001"
   enable-background="new 0 0 266.893 266.895"
   xml:space="preserve"
   inkscape:version="0.48.4 r9939"
   sodipodi:docname="F_icon.svg"><metadata
     id="metadata9"><rdf:RDF><cc:Work
         rdf:about=""><dc:format>image/svg+xml</dc:format><dc:type
           rdf:resource="http://purl.org/dc/dcmitype/StillImage" /></cc:Work></rdf:RDF></metadata><defs
     id="defs7" /><sodipodi:namedview
     pagecolor="#ffffff"
     bordercolor="#666666"
     borderopacity="1"
     objecttolerance="10"
     gridtolerance="10"
     guidetolerance="10"
     inkscape:pageopacity="0"
     inkscape:pageshadow="2"
     inkscape:window-width="1920"
     inkscape:window-height="1053"
     id="namedview5"
     showgrid="false"
     inkscape:zoom="40.016266"
     inkscape:cx="9.8569113"
     inkscape:cy="10.017536"
     inkscape:window-x="0"
     inkscape:window-y="0"
     inkscape:window-maximized="1"
     inkscape:current-layer="Layer_1" /><path
     d="M 0.88273709,6.5861579e-7 C 0.39494953,6.5861579e-7 -8.1786701e-6,0.39496066 -8.1786701e-6,0.88274066 l 0,14.23451034 c 0,0.48767 0.3948956186701,0.88275 0.8827452686701,0.88275 l 7.66339311,0 0,-6.1966803 -2.085607,0 0,-2.41542 2.085607,0 0,-1.77907 c 0,-2.06656 1.2625392,-3.19341 3.1060998,-3.19341 0.883071,0 1.641355,0.0656 1.862495,0.0951 l 0,2.16127 -1.278525,0 c -1.00252,0 -1.197042,0.47658 -1.197042,1.1757 l 0,1.54044 2.392143,0 -0.312356,2.41542 -2.079787,0 0,6.1966803 4.078089,0 c 0.487602,0 0.882745,-0.39502 0.882745,-0.88275 l 0,-14.23451034 c 0,-0.48778 -0.395081,-0.882740001384 -0.882745,-0.882740001384 l -14.23450991,0 z"
     id="Blue_1_"
     inkscape:connector-curvature="0" /></svg>