<?xml version="1.0" encoding="UTF-8" standalone="no"?>
<!-- Created with Inkscape (http://www.inkscape.org/) -->

<svg
   xmlns:dc="http://purl.org/dc/elements/1.1/"
   xmlns:cc="http://creativecommons.org/ns#"
   xmlns:rdf="http://www.w3.org/1999/02/22-rdf-syntax-ns#"
   xmlns:svg="http://www.w3.org/2000/svg"
   xmlns="http://www.w3.org/2000/svg"
   xmlns:sodipodi="http://sodipodi.sourceforge.net/DTD/sodipodi-0.dtd"
   xmlns:inkscape="http://www.inkscape.org/namespaces/inkscape"
   width="16"
   height="16"
   id="svg3070"
   version="1.1"
   inkscape:version="0.48.4 r9939"
   sodipodi:docname="LinkedIn_Logo.svg">
  <defs
     id="defs3072" />
  <sodipodi:namedview
     id="base"
     pagecolor="#ffffff"
     bordercolor="#666666"
     borderopacity="1.0"
     inkscape:pageopacity="0.0"
     inkscape:pageshadow="2"
     inkscape:zoom="44.8"
     inkscape:cx="12.51141"
     inkscape:cy="7.4929811"
     inkscape:document-units="px"
     inkscape:current-layer="layer1"
     showgrid="false"
     fit-margin-top="0"
     fit-margin-left="0"
     fit-margin-right="0"
     fit-margin-bottom="0"
     inkscape:window-width="1920"
     inkscape:window-height="1053"
     inkscape:window-x="0"
     inkscape:window-y="0"
     inkscape:window-maximized="1" />
  <metadata
     id="metadata3075">
    <rdf:RDF>
      <cc:Work
         rdf:about="">
        <dc:format>image/svg+xml</dc:format>
        <dc:type
           rdf:resource="http://purl.org/dc/dcmitype/StillImage" />
        <dc:title />
      </cc:Work>
    </rdf:RDF>
  </metadata>
  <g
     inkscape:label="Layer 1"
     inkscape:groupmode="layer"
     id="layer1"
     transform="translate(-200.55198,-457.42227)">
    <path
       style="fill:#006699;fill-opacity:1;fill-rule:nonzero;stroke:none"
       d="M 1.1875 0 C 0.53435 0 0 0.52344 0 1.15625 L 0 14.84375 C 0 15.47678 0.53435 16 1.1875 16 L 14.8125 16 C 15.46565 16 16 15.47678 16 14.84375 L 16 1.15625 C 16 0.52344 15.46565 0 14.8125 0 L 1.1875 0 z M 3.59375 2.6875 C 4.42069 2.6875 4.92178 3.22858 4.9375 3.9375 C 4.9375 4.6308 4.40543 5.1875 3.5625 5.1875 C 2.75131 5.1875 2.21875 4.6308 2.21875 3.9375 C 2.21875 3.22858 2.76689 2.6875 3.59375 2.6875 z M 10.71875 6 C 12.30909 6 13.5 7.0309 13.5 9.25 L 13.5 13.40625 L 11.0625 13.40625 L 11.0625 9.53125 C 11.0625 8.56002 10.71843 7.90625 9.84375 7.90625 C 9.176 7.90625 8.76849 8.34983 8.59375 8.78125 C 8.52985 8.9356 8.53125 9.12782 8.53125 9.34375 L 8.53125 13.40625 L 6.125 13.40625 C 6.125 13.40625 6.1567 6.83417 6.125 6.15625 L 8.53125 6.15625 L 8.53125 7.1875 C 8.85169 6.69491 9.43104 6 10.71875 6 z M 2.34375 6.15625 L 4.78125 6.15625 L 4.78125 13.40625 L 2.34375 13.40625 L 2.34375 6.15625 z "
       transform="translate(200.55198,457.42227)"
       id="path14" />
  </g>
</svg>
