<?xml version="1.0" encoding="UTF-8" standalone="no"?>
<!-- Created with Inkscape (http://www.inkscape.org/) -->

<svg
   xmlns:dc="http://purl.org/dc/elements/1.1/"
   xmlns:cc="http://creativecommons.org/ns#"
   xmlns:rdf="http://www.w3.org/1999/02/22-rdf-syntax-ns#"
   xmlns:svg="http://www.w3.org/2000/svg"
   xmlns="http://www.w3.org/2000/svg"
   xmlns:sodipodi="http://sodipodi.sourceforge.net/DTD/sodipodi-0.dtd"
   xmlns:inkscape="http://www.inkscape.org/namespaces/inkscape"
   width="1356.0226"
   height="465.34271"
   id="svg7698"
   version="1.1"
   inkscape:version="0.48.1 "
   sodipodi:docname="picocube.svg"
   inkscape:export-filename="C:\Users\Jim\Desktop\rocket and HAB stuff\picocube.png"
   inkscape:export-xdpi="300"
   inkscape:export-ydpi="300">
  <defs
     id="defs7700">
    <marker
       inkscape:stockid="Arrow1Lend"
       orient="auto"
       refY="0"
       refX="0"
       id="Arrow1Lend"
       style="overflow:visible">
      <path
         id="path3891"
         d="M 0,0 5,-5 -12.5,0 5,5 0,0 z"
         style="fill-rule:evenodd;stroke:#000000;stroke-width:1pt;marker-start:none"
         transform="matrix(-0.8,0,0,-0.8,-10,0)"
         inkscape:connector-curvature="0" />
    </marker>
    <marker
       inkscape:stockid="Arrow1Lstart"
       orient="auto"
       refY="0"
       refX="0"
       id="Arrow1Lstart"
       style="overflow:visible">
      <path
         id="path3888"
         d="M 0,0 5,-5 -12.5,0 5,5 0,0 z"
         style="fill-rule:evenodd;stroke:#000000;stroke-width:1pt;marker-start:none"
         transform="matrix(0.8,0,0,0.8,10,0)"
         inkscape:connector-curvature="0" />
    </marker>
    <marker
       inkscape:stockid="Arrow2Lend"
       orient="auto"
       refY="0"
       refX="0"
       id="Arrow2Lend"
       style="overflow:visible">
      <path
         id="path3909"
         style="font-size:12px;fill-rule:evenodd;stroke-width:0.625;stroke-linejoin:round"
         d="M 8.7185878,4.0337352 -2.2072895,0.01601326 8.7185884,-4.0017078 c -1.7454984,2.3720609 -1.7354408,5.6174519 -6e-7,8.035443 z"
         transform="matrix(-1.1,0,0,-1.1,-1.1,0)"
         inkscape:connector-curvature="0" />
    </marker>
    <marker
       inkscape:stockid="Arrow2Mend"
       orient="auto"
       refY="0"
       refX="0"
       id="Arrow2Mend"
       style="overflow:visible">
      <path
         id="path3915"
         style="font-size:12px;fill-rule:evenodd;stroke-width:0.625;stroke-linejoin:round"
         d="M 8.7185878,4.0337352 -2.2072895,0.01601326 8.7185884,-4.0017078 c -1.7454984,2.3720609 -1.7354408,5.6174519 -6e-7,8.035443 z"
         transform="scale(-0.6,-0.6)"
         inkscape:connector-curvature="0" />
    </marker>
    <marker
       inkscape:stockid="Arrow2Mstart"
       orient="auto"
       refY="0"
       refX="0"
       id="Arrow2Mstart"
       style="overflow:visible">
      <path
         id="path3912"
         style="font-size:12px;fill-rule:evenodd;stroke-width:0.625;stroke-linejoin:round"
         d="M 8.7185878,4.0337352 -2.2072895,0.01601326 8.7185884,-4.0017078 c -1.7454984,2.3720609 -1.7354408,5.6174519 -6e-7,8.035443 z"
         transform="scale(0.6,0.6)"
         inkscape:connector-curvature="0" />
    </marker>
    <inkscape:perspective
       sodipodi:type="inkscape:persp3d"
       inkscape:vp_x="-374.5423 : 415.34357 : 1"
       inkscape:vp_y="0 : 1145.7643 : 0"
       inkscape:vp_z="483.45275 : 415.34357 : 1"
       inkscape:persp3d-origin="54.455229 : 214.38369 : 1"
       id="perspective8774" />
    <marker
       inkscape:stockid="Arrow1Lstart"
       orient="auto"
       refY="0"
       refX="0"
       id="Arrow1Lstart-0"
       style="overflow:visible">
      <path
         inkscape:connector-curvature="0"
         id="path3888-8"
         d="M 0,0 5,-5 -12.5,0 5,5 0,0 z"
         style="fill-rule:evenodd;stroke:#000000;stroke-width:1pt;marker-start:none"
         transform="matrix(0.8,0,0,0.8,10,0)" />
    </marker>
    <marker
       inkscape:stockid="Arrow1Lend"
       orient="auto"
       refY="0"
       refX="0"
       id="Arrow1Lend-9"
       style="overflow:visible">
      <path
         inkscape:connector-curvature="0"
         id="path3891-2"
         d="M 0,0 5,-5 -12.5,0 5,5 0,0 z"
         style="fill-rule:evenodd;stroke:#000000;stroke-width:1pt;marker-start:none"
         transform="matrix(-0.8,0,0,-0.8,-10,0)" />
    </marker>
    <marker
       inkscape:stockid="Arrow1Lstart"
       orient="auto"
       refY="0"
       refX="0"
       id="Arrow1Lstart-7"
       style="overflow:visible">
      <path
         inkscape:connector-curvature="0"
         id="path3888-7"
         d="M 0,0 5,-5 -12.5,0 5,5 0,0 z"
         style="fill-rule:evenodd;stroke:#000000;stroke-width:1pt;marker-start:none"
         transform="matrix(0.8,0,0,0.8,10,0)" />
    </marker>
    <marker
       inkscape:stockid="Arrow1Lend"
       orient="auto"
       refY="0"
       refX="0"
       id="Arrow1Lend-4"
       style="overflow:visible">
      <path
         inkscape:connector-curvature="0"
         id="path3891-1"
         d="M 0,0 5,-5 -12.5,0 5,5 0,0 z"
         style="fill-rule:evenodd;stroke:#000000;stroke-width:1pt;marker-start:none"
         transform="matrix(-0.8,0,0,-0.8,-10,0)" />
    </marker>
  </defs>
  <sodipodi:namedview
     id="base"
     pagecolor="#ffffff"
     bordercolor="#666666"
     borderopacity="1.0"
     inkscape:pageopacity="0.0"
     inkscape:pageshadow="2"
     inkscape:zoom="0.49497475"
     inkscape:cx="338.01582"
     inkscape:cy="33.295579"
     inkscape:document-units="px"
     inkscape:current-layer="layer1"
     showgrid="false"
     inkscape:window-width="1366"
     inkscape:window-height="706"
     inkscape:window-x="-8"
     inkscape:window-y="-8"
     inkscape:window-maximized="1"
     fit-margin-top="0"
     fit-margin-left="0"
     fit-margin-right="0"
     fit-margin-bottom="0" />
  <metadata
     id="metadata7703">
    <rdf:RDF>
      <cc:Work
         rdf:about="">
        <dc:format>image/svg+xml</dc:format>
        <dc:type
           rdf:resource="http://purl.org/dc/dcmitype/StillImage" />
        <dc:title />
      </cc:Work>
    </rdf:RDF>
  </metadata>
  <g
     inkscape:label="Layer 1"
     inkscape:groupmode="layer"
     id="layer1"
     transform="translate(-51.736604,18.837781)">
    <g
       sodipodi:type="inkscape:box3d"
       style="fill:#ffffff;fill-opacity:1;fill-rule:evenodd;stroke:#000000;stroke-width:3;stroke-linecap:round;stroke-linejoin:miter;stroke-miterlimit:4;stroke-opacity:1;stroke-dasharray:none;stroke-dashoffset:0"
       id="g8776"
       inkscape:perspectiveID="#perspective8774"
       inkscape:corner0="-0.020928316 : 0.14696319 : 0 : 1"
       inkscape:corner7="-0.27857876 : 0.017374866 : 0.25 : 1">
      <path
         sodipodi:type="inkscape:box3dside"
         id="path8786"
         style="fill:#afafde;fill-rule:evenodd;stroke:none"
         inkscape:box3dsidetype="13"
         d="M 115.36194,216.08386 271.85039,282.12761 339.62196,217.54022 200.75717,178.4696 z" />
      <path
         sodipodi:type="inkscape:box3dside"
         id="path8778"
         style="fill:#353564;fill-rule:evenodd;stroke:none"
         inkscape:box3dsidetype="6"
         d="m 115.36194,64.432371 0,151.651489 85.39523,-37.61426 0,-120.804737 z" />
      <path
         sodipodi:type="inkscape:box3dside"
         id="path8788"
         style="fill:#e9e9ff;fill-rule:evenodd;stroke:none"
         inkscape:box3dsidetype="11"
         d="m 200.75717,57.664863 138.86479,7.029534 0,152.845823 -138.86479,-39.07062 z" />
      <path
         sodipodi:type="inkscape:box3dside"
         id="path8780"
         style="fill:#4d4d9f;fill-rule:evenodd;stroke:none"
         inkscape:box3dsidetype="5"
         d="M 115.36194,64.432371 271.85039,76.314875 339.62196,64.694397 200.75717,57.664863 z" />
      <path
         sodipodi:type="inkscape:box3dside"
         id="path8784"
         style="fill:#d7d7ff;fill-rule:evenodd;stroke:none"
         inkscape:box3dsidetype="14"
         d="m 271.85039,76.314875 0,205.812735 67.77157,-64.58739 0,-152.845823 z" />
      <path
         sodipodi:type="inkscape:box3dside"
         id="path8782"
         style="fill:#8686bf;fill-rule:evenodd;stroke:none"
         inkscape:box3dsidetype="3"
         d="m 115.36194,64.432371 156.48845,11.882504 0,205.812735 -156.48845,-66.04375 z" />
    </g>
    <text
       xml:space="preserve"
       style="font-size:20px;font-style:normal;font-weight:normal;line-height:125%;letter-spacing:0px;word-spacing:0px;fill:#000000;fill-opacity:1;stroke:none;font-family:Sans"
       x="161.48854"
       y="137.43079"
       id="text8790"
       sodipodi:linespacing="125%"
       transform="matrix(0.9918826,0.12715705,-0.12715705,0.9918826,0,0)"><tspan
         sodipodi:role="line"
         id="tspan8792"
         x="161.48854"
         y="137.43079"><tspan
           style="font-size:40px"
           id="tspan8796">Pico</tspan><tspan
           style="font-size:40px;baseline-shift:super"
           id="tspan8794">3</tspan></tspan></text>
    <rect
       style="fill:#ffffff;fill-opacity:1;fill-rule:evenodd;stroke:#000000;stroke-width:3;stroke-linecap:round;stroke-linejoin:miter;stroke-miterlimit:4;stroke-opacity:1;stroke-dasharray:none;stroke-dashoffset:0"
       id="rect8220-2-9"
       width="221.2234"
       height="221.2234"
       x="-634.59137"
       y="49.352951"
       transform="scale(-1,1)" />
    <path
       style="fill:none;stroke:#000000;stroke-width:3;stroke-linecap:butt;stroke-linejoin:miter;stroke-miterlimit:4;stroke-opacity:1;stroke-dasharray:none"
       d="m 413.193,256.86706 220.71833,0"
       id="path8838"
       inkscape:connector-curvature="0" />
    <rect
       style="fill:#ffff00;fill-opacity:1;fill-rule:evenodd;stroke:#000000;stroke-width:3;stroke-linecap:round;stroke-linejoin:miter;stroke-miterlimit:4;stroke-opacity:1;stroke-dasharray:none;stroke-dashoffset:0"
       id="rect8840"
       width="42.931484"
       height="8.586297"
       x="421.27423"
       y="270.50409" />
    <rect
       style="fill:#ffff00;fill-opacity:1;fill-rule:evenodd;stroke:#000000;stroke-width:3;stroke-linecap:round;stroke-linejoin:miter;stroke-miterlimit:4;stroke-opacity:1;stroke-dasharray:none;stroke-dashoffset:0"
       id="rect8840-8"
       width="42.931484"
       height="8.586297"
       x="477.08514"
       y="270.75665" />
    <rect
       style="fill:#000000;fill-opacity:1;fill-rule:evenodd;stroke:#000000;stroke-width:3;stroke-linecap:round;stroke-linejoin:miter;stroke-miterlimit:4;stroke-opacity:1;stroke-dasharray:none;stroke-dashoffset:0"
       id="rect8840-8-9"
       width="80.294144"
       height="8.586297"
       x="420.01157"
       y="248.02824" />
    <rect
       style="fill:#000000;fill-opacity:1;fill-rule:evenodd;stroke:#000000;stroke-width:3;stroke-linecap:round;stroke-linejoin:miter;stroke-miterlimit:4;stroke-opacity:1;stroke-dasharray:none;stroke-dashoffset:0"
       id="rect8840-8-9-4"
       width="105.84077"
       height="8.586297"
       x="513.96222"
       y="248.02824" />
    <rect
       style="fill:#ffffff;fill-opacity:1;fill-rule:evenodd;stroke:#000000;stroke-width:3;stroke-linecap:round;stroke-linejoin:miter;stroke-miterlimit:4;stroke-opacity:1;stroke-dasharray:none;stroke-dashoffset:0"
       id="rect8896"
       width="211.12189"
       height="180.31223"
       x="418.24377"
       y="54.836533" />
    <text
       xml:space="preserve"
       style="font-size:20px;font-style:normal;font-weight:normal;text-align:center;line-height:125%;letter-spacing:0px;word-spacing:0px;text-anchor:middle;fill:#000000;fill-opacity:1;stroke:none;font-family:Sans"
       x="524.0116"
       y="134.13353"
       id="text8898"
       sodipodi:linespacing="125%"><tspan
         sodipodi:role="line"
         id="tspan8900"
         x="524.0116"
         y="134.13353">Your Experiment</tspan><tspan
         sodipodi:role="line"
         x="524.0116"
         y="159.13353"
         id="tspan8902">Here</tspan></text>
    <text
       xml:space="preserve"
       style="font-size:20px;font-style:normal;font-weight:normal;line-height:125%;letter-spacing:0px;word-spacing:0px;fill:#000000;fill-opacity:1;stroke:none;font-family:Sans"
       x="411.1727"
       y="24.026903"
       id="text8916"
       sodipodi:linespacing="125%"><tspan
         sodipodi:role="line"
         id="tspan8918"
         x="411.1727"
         y="24.026903"
         style="font-weight:bold">Side View</tspan></text>
    <text
       xml:space="preserve"
       style="font-size:20px;font-style:normal;font-weight:normal;line-height:125%;letter-spacing:0px;word-spacing:0px;fill:#000000;fill-opacity:1;stroke:none;font-family:Sans"
       x="1095.1393"
       y="386.36209"
       id="text8951"
       sodipodi:linespacing="125%"><tspan
         sodipodi:role="line"
         id="tspan8953"
         x="1095.1393"
         y="386.36209">Other</tspan><tspan
         sodipodi:role="line"
         x="1095.1393"
         y="411.36209"
         id="tspan8955">Electronics</tspan></text>
    <text
       xml:space="preserve"
       style="font-size:20px;font-style:normal;font-weight:normal;line-height:125%;letter-spacing:0px;word-spacing:0px;fill:#000000;fill-opacity:1;stroke:none;font-family:Sans"
       x="542.67224"
       y="385.56302"
       id="text8957"
       sodipodi:linespacing="125%"><tspan
         sodipodi:role="line"
         id="tspan8959"
         x="542.67224"
         y="385.56302">Onboard</tspan><tspan
         sodipodi:role="line"
         x="542.67224"
         y="410.56302"
         id="tspan8961">Arial</tspan></text>
    <text
       xml:space="preserve"
       style="font-size:20px;font-style:normal;font-weight:normal;line-height:125%;letter-spacing:0px;word-spacing:0px;fill:#000000;fill-opacity:1;stroke:none;font-family:Sans"
       x="683.38654"
       y="389.13437"
       id="text8963"
       sodipodi:linespacing="125%"><tspan
         sodipodi:role="line"
         id="tspan8965"
         x="683.38654"
         y="389.13437">Solar Cell</tspan></text>
    <text
       xml:space="preserve"
       style="font-size:20px;font-style:normal;font-weight:normal;line-height:125%;letter-spacing:0px;word-spacing:0px;fill:#000000;fill-opacity:1;stroke:none;font-family:Sans"
       x="1304.5679"
       y="384.6478"
       id="text8967"
       sodipodi:linespacing="125%"><tspan
         sodipodi:role="line"
         id="tspan8969"
         x="1304.5679"
         y="384.6478">Radio</tspan><tspan
         sodipodi:role="line"
         x="1304.5679"
         y="409.6478"
         id="tspan8971">Module</tspan></text>
    <text
       xml:space="preserve"
       style="font-size:20px;font-style:normal;font-weight:normal;line-height:125%;letter-spacing:0px;word-spacing:0px;fill:#000000;fill-opacity:1;stroke:none;font-family:Sans"
       x="335.38651"
       y="386.99155"
       id="text8973"
       sodipodi:linespacing="125%"><tspan
         sodipodi:role="line"
         id="tspan8975"
         x="335.38651"
         y="386.99155">Electronic</tspan><tspan
         sodipodi:role="line"
         x="335.38651"
         y="411.99155"
         id="tspan8977">Feed Through</tspan></text>
    <text
       xml:space="preserve"
       style="font-size:20px;font-style:normal;font-weight:normal;line-height:125%;letter-spacing:0px;word-spacing:0px;fill:#000000;fill-opacity:1;stroke:none;font-family:Sans"
       x="87.386513"
       y="386.99155"
       id="text8979"
       sodipodi:linespacing="125%"><tspan
         sodipodi:role="line"
         x="87.386513"
         y="386.99155"
         id="tspan8983">Experiment Power</tspan><tspan
         sodipodi:role="line"
         x="87.386513"
         y="411.99155"
         id="tspan8985">Contacts</tspan></text>
    <text
       xml:space="preserve"
       style="font-size:20px;font-style:normal;font-weight:normal;line-height:125%;letter-spacing:0px;word-spacing:0px;fill:#000000;fill-opacity:1;stroke:none;font-family:Sans"
       x="847.85364"
       y="387.79068"
       id="text8989"
       sodipodi:linespacing="125%"><tspan
         sodipodi:role="line"
         id="tspan8991"
         x="847.85364"
         y="387.79068">Experiment Control</tspan><tspan
         sodipodi:role="line"
         x="847.85364"
         y="412.79068"
         id="tspan8993">Contacts</tspan></text>
    <rect
       style="fill:#008000;fill-opacity:1;fill-rule:evenodd;stroke:#000000;stroke-width:3;stroke-linecap:round;stroke-linejoin:miter;stroke-miterlimit:4;stroke-opacity:1;stroke-dasharray:none;stroke-dashoffset:0"
       id="rect9030"
       width="221.42847"
       height="14.285674"
       x="413.57144"
       y="256.64789" />
    <path
       sodipodi:type="arc"
       style="fill:#ffffff;fill-opacity:1;fill-rule:evenodd;stroke:#000000;stroke-width:3;stroke-linecap:round;stroke-linejoin:miter;stroke-miterlimit:4;stroke-opacity:1;stroke-dasharray:none;stroke-dashoffset:0"
       id="path8222-73"
       sodipodi:cx="289.91379"
       sodipodi:cy="390.71228"
       sodipodi:rx="5.0507627"
       sodipodi:ry="5.0507627"
       d="m 294.96455,390.71228 c 0,2.78946 -2.2613,5.05076 -5.05076,5.05076 -2.78946,0 -5.05076,-2.2613 -5.05076,-5.05076 0,-2.78946 2.2613,-5.05076 5.05076,-5.05076 2.78946,0 5.05076,2.2613 5.05076,5.05076 z"
       transform="translate(19.47273,0.564967)" />
    <rect
       style="fill:#ffff00;fill-opacity:1;fill-rule:evenodd;stroke:#000000;stroke-width:3;stroke-linecap:round;stroke-linejoin:miter;stroke-miterlimit:4;stroke-opacity:1;stroke-dasharray:none;stroke-dashoffset:0"
       id="rect8319-3-0-2-6-05"
       width="24.243662"
       height="38.385796"
       x="648.83612"
       y="368.51291" />
    <rect
       style="fill:#800080;fill-opacity:1;fill-rule:evenodd;stroke:#000000;stroke-width:3;stroke-linecap:round;stroke-linejoin:miter;stroke-miterlimit:4;stroke-opacity:1;stroke-dasharray:none;stroke-dashoffset:0"
       id="rect8670-6"
       width="56.42857"
       height="99.285713"
       x="1032.3535"
       y="345.71921" />
    <rect
       style="fill:#00ffff;fill-opacity:1;fill-rule:evenodd;stroke:#000000;stroke-width:3;stroke-linecap:round;stroke-linejoin:miter;stroke-miterlimit:4;stroke-opacity:1;stroke-dasharray:none;stroke-dashoffset:0"
       id="rect8672-4"
       width="40"
       height="26.428572"
       x="1244.2822"
       y="376.4335" />
    <path
       sodipodi:type="spiral"
       style="fill:none;stroke:#000000;stroke-width:29.4754715;stroke-linecap:butt;stroke-linejoin:miter;stroke-miterlimit:4;stroke-opacity:1;stroke-dasharray:none"
       id="path8226-6"
       sodipodi:cx="446.48743"
       sodipodi:cy="449.30112"
       sodipodi:expansion="1"
       sodipodi:revolution="9.4831991"
       sodipodi:radius="726.93347"
       sodipodi:argument="-17.802359"
       sodipodi:t0="0"
       d="m 446.48743,449.30112 c 5.76503,9.98532 -10.61576,12.69755 -16.59627,9.58186 -16.20682,-8.44333 -13.06279,-31.25763 -2.56746,-42.77439 18.77368,-20.60078 51.6359,-14.79807 68.95252,4.44693 25.41285,28.24283 16.6648,72.31953 -11.46134,95.13066 -37.48772,30.40365 -93.11533,18.59233 -121.30878,-18.47574 -35.47858,-46.6464 -20.55231,-113.96555 25.49014,-147.48692 55.76358,-40.59887 134.84658,-22.53123 173.66504,32.50455 45.74623,64.85776 24.5221,155.74685 -39.51894,199.84317 -73.93791,50.91095 -176.65997,26.52091 -226.0213,-46.53335 -56.08748,-83.00889 -28.52529,-197.5821 53.54775,-252.19943 92.07354,-61.27238 218.51081,-30.53369 278.37756,60.56215 66.46344,101.13365 32.5451,239.44445 -67.57656,304.55569 C 451.27941,720.11545 301.0879,683.01513 230.73598,573.86535 153.87752,454.62079 194.16162,292.54301 312.34133,216.9534 440.63805,134.89279 614.60651,178.36208 695.43141,305.57316 782.69645,442.92044 736.04087,628.78313 599.79725,714.84136 453.40068,807.3127 255.64087,757.46991 164.35091,612.19281 66.671736,456.74801 119.70248,247.08867 274.01387,150.56834 438.50603,47.680037 660.06689,103.89935 761.81647,267.2457 869.91498,440.78447 810.50658,674.24856 638.12471,781.22643 455.53994,894.53607 210.17117,831.93813 97.965852,650.52026 -20.55572,458.89003 45.232123,201.61534 235.68642,84.183277 436.36166,-39.550909 705.54335,29.427165 828.20153,228.91824 957.14893,438.6381 884.98034,719.72773 676.45216,847.61149 457.68804,981.77262 164.68964,906.41328 31.58079,688.84772 -107.79454,461.03964 -29.24422,156.13174 197.35896,17.798215 434.21074,-126.79172 751.02878,-45.050236 894.58659,190.59079 1044.3915,436.48602 959.45868,765.21478 714.77962,913.99655 459.84115,1069.0168 119.20115,980.89244 -34.804272,727.17517 -195.04006,463.19365 -103.72413,110.64196 159.03151,-48.586847 432.05591,-214.03849 796.51971,-119.53081 960.97166,152.26333 1131.6394,434.33047 1033.9399,810.70676 753.10708,980.38161 461.99735,1156.2656 73.708232,1055.3742 -101.18933,765.50263 -282.28986,465.35045 -178.20633,65.148181 120.70405,-114.97191 429.89858,-301.28911 842.01427,-194.01346 1027.3567,113.93588 1218.8908,432.17265 1108.4229,856.20203 791.43453,1046.7667 464.15562,1243.5177 28.212307,1129.8576 -167.5744,803.83009 -354.54207,492.48819 -270.36462,79.47186 18.710714,-138.43977"
       transform="matrix(0.0398388,0,0,0.0398388,488.72069,373.44811)" />
    <rect
       style="fill:#808000;fill-opacity:1;fill-rule:evenodd;stroke:#000000;stroke-width:3;stroke-linecap:round;stroke-linejoin:miter;stroke-miterlimit:4;stroke-opacity:1;stroke-dasharray:none;stroke-dashoffset:0"
       id="rect8295-51"
       width="11.111678"
       height="11.111678"
       x="798.77515"
       y="387.63022" />
    <rect
       style="fill:#808000;fill-opacity:1;fill-rule:evenodd;stroke:#000000;stroke-width:3;stroke-linecap:round;stroke-linejoin:miter;stroke-miterlimit:4;stroke-opacity:1;stroke-dasharray:none;stroke-dashoffset:0"
       id="rect8295-3-9"
       width="11.111678"
       height="11.111678"
       x="822.39191"
       y="387.69662" />
    <rect
       style="fill:#000000;fill-opacity:1;fill-rule:evenodd;stroke:#000000;stroke-width:3;stroke-linecap:round;stroke-linejoin:miter;stroke-miterlimit:4;stroke-opacity:1;stroke-dasharray:none;stroke-dashoffset:0"
       id="rect8295-5-1"
       width="11.111678"
       height="11.111678"
       x="-407.72342"
       y="-64.348282"
       transform="matrix(0,-1,-1,0,0,0)" />
    <rect
       style="fill:#ff0000;fill-opacity:1;fill-rule:evenodd;stroke:#000000;stroke-width:3;stroke-linecap:round;stroke-linejoin:miter;stroke-miterlimit:4;stroke-opacity:1;stroke-dasharray:none;stroke-dashoffset:0"
       id="rect8295-3-0-8"
       width="11.111678"
       height="11.111678"
       x="-386.22849"
       y="-64.39357"
       transform="matrix(0,-1,-1,0,0,0)"
       inkscape:transform-center-x="-7.0558391" />
    <path
       style="fill:none;stroke:#000000;stroke-width:3;stroke-linecap:butt;stroke-linejoin:miter;stroke-miterlimit:4;stroke-opacity:1;stroke-dasharray:none"
       d="m 634.67407,49.37028 60.60915,0"
       id="path3863-8"
       inkscape:connector-curvature="0" />
    <path
       style="fill:none;stroke:#000000;stroke-width:3;stroke-linecap:butt;stroke-linejoin:miter;stroke-miterlimit:4;stroke-opacity:1;stroke-dasharray:none"
       d="m 634.67408,270.59369 60.60915,0"
       id="path3863-1-2"
       inkscape:connector-curvature="0" />
    <path
       style="fill:none;stroke:#000000;stroke-width:1px;stroke-linecap:butt;stroke-linejoin:miter;stroke-opacity:1;marker-start:url(#Arrow1Lstart);marker-end:url(#Arrow1Lend)"
       d="m 678.11063,49.370287 0,222.233553"
       id="path3883-0"
       inkscape:connector-curvature="0" />
    <text
       xml:space="preserve"
       style="font-size:20px;font-style:normal;font-weight:normal;line-height:125%;letter-spacing:0px;word-spacing:0px;fill:#000000;fill-opacity:1;stroke:none;font-family:Sans"
       x="683.16144"
       y="163.51749"
       id="text5457-5"
       sodipodi:linespacing="125%"><tspan
         sodipodi:role="line"
         id="tspan5459-5"
         x="683.16144"
         y="163.51749">40mm</tspan></text>
    <rect
       style="fill:#008000;fill-opacity:1;fill-rule:evenodd;stroke:#000000;stroke-width:3;stroke-linecap:round;stroke-linejoin:miter;stroke-miterlimit:4;stroke-opacity:1;stroke-dasharray:none;stroke-dashoffset:0"
       id="rect8220-2"
       width="221.2234"
       height="221.2234"
       x="-1303.7184"
       y="47.849049"
       transform="scale(-1,1)" />
    <path
       sodipodi:type="arc"
       style="fill:#ffffff;fill-opacity:1;fill-rule:evenodd;stroke:#000000;stroke-width:3;stroke-linecap:round;stroke-linejoin:miter;stroke-miterlimit:4;stroke-opacity:1;stroke-dasharray:none;stroke-dashoffset:0"
       id="path8222-10"
       sodipodi:cx="289.91379"
       sodipodi:cy="390.71228"
       sodipodi:rx="5.0507627"
       sodipodi:ry="5.0507627"
       d="m 294.96455,390.71228 c 0,2.78946 -2.2613,5.05076 -5.05076,5.05076 -2.78946,0 -5.05076,-2.2613 -5.05076,-5.05076 0,-2.78946 2.2613,-5.05076 5.05076,-5.05076 2.78946,0 5.05076,2.2613 5.05076,5.05076 z"
       transform="matrix(-1,0,0,1,1487.5662,-260.03076)" />
    <path
       sodipodi:type="arc"
       style="fill:#ffffff;fill-opacity:1;fill-rule:evenodd;stroke:#000000;stroke-width:3;stroke-linecap:round;stroke-linejoin:miter;stroke-miterlimit:4;stroke-opacity:1;stroke-dasharray:none;stroke-dashoffset:0"
       id="path8222-1-8"
       sodipodi:cx="289.91379"
       sodipodi:cy="390.71228"
       sodipodi:rx="5.0507627"
       sodipodi:ry="5.0507627"
       d="m 294.96455,390.71228 c 0,2.78946 -2.2613,5.05076 -5.05076,5.05076 -2.78946,0 -5.05076,-2.2613 -5.05076,-5.05076 0,-2.78946 2.2613,-5.05076 5.05076,-5.05076 2.78946,0 5.05076,2.2613 5.05076,5.05076 z"
       transform="matrix(-1,0,0,1,1447.1601,-198.41147)" />
    <path
       sodipodi:type="arc"
       style="fill:#ffffff;fill-opacity:1;fill-rule:evenodd;stroke:#000000;stroke-width:3;stroke-linecap:round;stroke-linejoin:miter;stroke-miterlimit:4;stroke-opacity:1;stroke-dasharray:none;stroke-dashoffset:0"
       id="path8222-7-9"
       sodipodi:cx="289.91379"
       sodipodi:cy="390.71228"
       sodipodi:rx="5.0507627"
       sodipodi:ry="5.0507627"
       d="m 294.96455,390.71228 c 0,2.78946 -2.2613,5.05076 -5.05076,5.05076 -2.78946,0 -5.05076,-2.2613 -5.05076,-5.05076 0,-2.78946 2.2613,-5.05076 5.05076,-5.05076 2.78946,0 5.05076,2.2613 5.05076,5.05076 z"
       transform="matrix(-1,0,0,1,1431.9636,-279.28258)" />
    <path
       sodipodi:type="arc"
       style="fill:#ffffff;fill-opacity:1;fill-rule:evenodd;stroke:#000000;stroke-width:3;stroke-linecap:round;stroke-linejoin:miter;stroke-miterlimit:4;stroke-opacity:1;stroke-dasharray:none;stroke-dashoffset:0"
       id="path8222-7-7-1"
       sodipodi:cx="289.91379"
       sodipodi:cy="390.71228"
       sodipodi:rx="5.0507627"
       sodipodi:ry="5.0507627"
       d="m 294.96455,390.71228 c 0,2.78946 -2.2613,5.05076 -5.05076,5.05076 -2.78946,0 -5.05076,-2.2613 -5.05076,-5.05076 0,-2.78946 2.2613,-5.05076 5.05076,-5.05076 2.78946,0 5.05076,2.2613 5.05076,5.05076 z"
       transform="translate(946.80425,-141.06829)" />
    <rect
       style="fill:#b3b3b3;fill-opacity:1;fill-rule:evenodd;stroke:#000000;stroke-width:3;stroke-linecap:round;stroke-linejoin:miter;stroke-miterlimit:4;stroke-opacity:1;stroke-dasharray:none;stroke-dashoffset:0"
       id="rect8291"
       width="63.63961"
       height="55.558392"
       x="1230.8595"
       y="54.971027" />
    <rect
       style="fill:#808000;fill-opacity:1;fill-rule:evenodd;stroke:#000000;stroke-width:3;stroke-linecap:round;stroke-linejoin:miter;stroke-miterlimit:4;stroke-opacity:1;stroke-dasharray:none;stroke-dashoffset:0"
       id="rect8295"
       width="11.111678"
       height="11.111678"
       x="1101.4519"
       y="243.76799" />
    <rect
       style="fill:#808000;fill-opacity:1;fill-rule:evenodd;stroke:#000000;stroke-width:3;stroke-linecap:round;stroke-linejoin:miter;stroke-miterlimit:4;stroke-opacity:1;stroke-dasharray:none;stroke-dashoffset:0"
       id="rect8295-3"
       width="11.111678"
       height="11.111678"
       x="1123.0687"
       y="243.8344" />
    <rect
       style="fill:#008000;fill-opacity:1;fill-rule:evenodd;stroke:#000000;stroke-width:3;stroke-linecap:round;stroke-linejoin:miter;stroke-miterlimit:4;stroke-opacity:1;stroke-dasharray:none;stroke-dashoffset:0"
       id="rect8220"
       width="221.2234"
       height="221.2234"
       x="771.1524"
       y="48.808613" />
    <path
       sodipodi:type="arc"
       style="fill:#ffffff;fill-opacity:1;fill-rule:evenodd;stroke:#000000;stroke-width:3;stroke-linecap:round;stroke-linejoin:miter;stroke-miterlimit:4;stroke-opacity:1;stroke-dasharray:none;stroke-dashoffset:0"
       id="path8222"
       sodipodi:cx="289.91379"
       sodipodi:cy="390.71228"
       sodipodi:rx="5.0507627"
       sodipodi:ry="5.0507627"
       d="m 294.96455,390.71228 c 0,2.78946 -2.2613,5.05076 -5.05076,5.05076 -2.78946,0 -5.05076,-2.2613 -5.05076,-5.05076 0,-2.78946 2.2613,-5.05076 5.05076,-5.05076 2.78946,0 5.05076,2.2613 5.05076,5.05076 z"
       transform="translate(587.30461,-259.07117)" />
    <path
       sodipodi:type="spiral"
       style="fill:none;stroke:#000000;stroke-width:29.4754715;stroke-linecap:butt;stroke-linejoin:miter;stroke-miterlimit:4;stroke-opacity:1;stroke-dasharray:none"
       id="path8226"
       sodipodi:cx="446.48743"
       sodipodi:cy="449.30112"
       sodipodi:expansion="1"
       sodipodi:revolution="9.4831991"
       sodipodi:radius="726.93347"
       sodipodi:argument="-17.802359"
       sodipodi:t0="0"
       d="m 446.48743,449.30112 c 5.76503,9.98532 -10.61576,12.69755 -16.59627,9.58186 -16.20682,-8.44333 -13.06279,-31.25763 -2.56746,-42.77439 18.77368,-20.60078 51.6359,-14.79807 68.95252,4.44693 25.41285,28.24283 16.6648,72.31953 -11.46134,95.13066 -37.48772,30.40365 -93.11533,18.59233 -121.30878,-18.47574 -35.47858,-46.6464 -20.55231,-113.96555 25.49014,-147.48692 55.76358,-40.59887 134.84658,-22.53123 173.66504,32.50455 45.74623,64.85776 24.5221,155.74685 -39.51894,199.84317 -73.93791,50.91095 -176.65997,26.52091 -226.0213,-46.53335 -56.08748,-83.00889 -28.52529,-197.5821 53.54775,-252.19943 92.07354,-61.27238 218.51081,-30.53369 278.37756,60.56215 66.46344,101.13365 32.5451,239.44445 -67.57656,304.55569 C 451.27941,720.11545 301.0879,683.01513 230.73598,573.86535 153.87752,454.62079 194.16162,292.54301 312.34133,216.9534 440.63805,134.89279 614.60651,178.36208 695.43141,305.57316 782.69645,442.92044 736.04087,628.78313 599.79725,714.84136 453.40068,807.3127 255.64087,757.46991 164.35091,612.19281 66.671736,456.74801 119.70248,247.08867 274.01387,150.56834 438.50603,47.680037 660.06689,103.89935 761.81647,267.2457 869.91498,440.78447 810.50658,674.24856 638.12471,781.22643 455.53994,894.53607 210.17117,831.93813 97.965852,650.52026 -20.55572,458.89003 45.232123,201.61534 235.68642,84.183277 436.36166,-39.550909 705.54335,29.427165 828.20153,228.91824 957.14893,438.6381 884.98034,719.72773 676.45216,847.61149 457.68804,981.77262 164.68964,906.41328 31.58079,688.84772 -107.79454,461.03964 -29.24422,156.13174 197.35896,17.798215 434.21074,-126.79172 751.02878,-45.050236 894.58659,190.59079 1044.3915,436.48602 959.45868,765.21478 714.77962,913.99655 459.84115,1069.0168 119.20115,980.89244 -34.804272,727.17517 -195.04006,463.19365 -103.72413,110.64196 159.03151,-48.586847 432.05591,-214.03849 796.51971,-119.53081 960.97166,152.26333 1131.6394,434.33047 1033.9399,810.70676 753.10708,980.38161 461.99735,1156.2656 73.708232,1055.3742 -101.18933,765.50263 -282.28986,465.35045 -178.20633,65.148181 120.70405,-114.97191 429.89858,-301.28911 842.01427,-194.01346 1027.3567,113.93588 1218.8908,432.17265 1108.4229,856.20203 791.43453,1046.7667 464.15562,1243.5177 28.212307,1129.8576 -167.5744,803.83009 -354.54207,492.48819 -270.36462,79.47186 18.710714,-138.43977"
       transform="matrix(0.10177954,0,0,0.10177954,872.43803,148.44651)" />
    <path
       sodipodi:type="arc"
       style="fill:#ffffff;fill-opacity:1;fill-rule:evenodd;stroke:#000000;stroke-width:3;stroke-linecap:round;stroke-linejoin:miter;stroke-miterlimit:4;stroke-opacity:1;stroke-dasharray:none;stroke-dashoffset:0"
       id="path8222-1"
       sodipodi:cx="289.91379"
       sodipodi:cy="390.71228"
       sodipodi:rx="5.0507627"
       sodipodi:ry="5.0507627"
       d="m 294.96455,390.71228 c 0,2.78946 -2.2613,5.05076 -5.05076,5.05076 -2.78946,0 -5.05076,-2.2613 -5.05076,-5.05076 0,-2.78946 2.2613,-5.05076 5.05076,-5.05076 2.78946,0 5.05076,2.2613 5.05076,5.05076 z"
       transform="translate(627.71072,-197.45188)" />
    <rect
       style="fill:#ffff00;fill-opacity:1;fill-rule:evenodd;stroke:#000000;stroke-width:3;stroke-linecap:round;stroke-linejoin:miter;stroke-miterlimit:4;stroke-opacity:1;stroke-dasharray:none;stroke-dashoffset:0"
       id="rect8319"
       width="24.243662"
       height="38.385796"
       x="931.7666"
       y="53.859364" />
    <rect
       style="fill:#ffff00;fill-opacity:1;fill-rule:evenodd;stroke:#000000;stroke-width:3;stroke-linecap:round;stroke-linejoin:miter;stroke-miterlimit:4;stroke-opacity:1;stroke-dasharray:none;stroke-dashoffset:0"
       id="rect8319-6"
       width="24.243662"
       height="38.385796"
       x="962.07123"
       y="53.859364" />
    <rect
       style="fill:#ffff00;fill-opacity:1;fill-rule:evenodd;stroke:#000000;stroke-width:3;stroke-linecap:round;stroke-linejoin:miter;stroke-miterlimit:4;stroke-opacity:1;stroke-dasharray:none;stroke-dashoffset:0"
       id="rect8319-3"
       width="24.243662"
       height="38.385796"
       x="870.5658"
       y="54.155201" />
    <rect
       style="fill:#ffff00;fill-opacity:1;fill-rule:evenodd;stroke:#000000;stroke-width:3;stroke-linecap:round;stroke-linejoin:miter;stroke-miterlimit:4;stroke-opacity:1;stroke-dasharray:none;stroke-dashoffset:0"
       id="rect8319-6-5"
       width="24.243662"
       height="38.385796"
       x="900.87036"
       y="54.155201" />
    <rect
       style="fill:#ffff00;fill-opacity:1;fill-rule:evenodd;stroke:#000000;stroke-width:3;stroke-linecap:round;stroke-linejoin:miter;stroke-miterlimit:4;stroke-opacity:1;stroke-dasharray:none;stroke-dashoffset:0"
       id="rect8319-9"
       width="24.243662"
       height="38.385796"
       x="809.71869"
       y="54.477039" />
    <rect
       style="fill:#ffff00;fill-opacity:1;fill-rule:evenodd;stroke:#000000;stroke-width:3;stroke-linecap:round;stroke-linejoin:miter;stroke-miterlimit:4;stroke-opacity:1;stroke-dasharray:none;stroke-dashoffset:0"
       id="rect8319-6-7"
       width="24.243662"
       height="38.385796"
       x="840.02325"
       y="54.477039" />
    <rect
       style="fill:#ffff00;fill-opacity:1;fill-rule:evenodd;stroke:#000000;stroke-width:3;stroke-linecap:round;stroke-linejoin:miter;stroke-miterlimit:4;stroke-opacity:1;stroke-dasharray:none;stroke-dashoffset:0"
       id="rect8319-3-0"
       width="24.243662"
       height="38.385796"
       x="778.875"
       y="99.415756" />
    <rect
       style="fill:#ffff00;fill-opacity:1;fill-rule:evenodd;stroke:#000000;stroke-width:3;stroke-linecap:round;stroke-linejoin:miter;stroke-miterlimit:4;stroke-opacity:1;stroke-dasharray:none;stroke-dashoffset:0"
       id="rect8319-6-5-4"
       width="24.243662"
       height="38.385796"
       x="778.82245"
       y="54.772877" />
    <rect
       style="fill:#ffff00;fill-opacity:1;fill-rule:evenodd;stroke:#000000;stroke-width:3;stroke-linecap:round;stroke-linejoin:miter;stroke-miterlimit:4;stroke-opacity:1;stroke-dasharray:none;stroke-dashoffset:0"
       id="rect8319-3-0-2"
       width="24.243662"
       height="38.385796"
       x="809.98486"
       y="99.624954" />
    <rect
       style="fill:#ffff00;fill-opacity:1;fill-rule:evenodd;stroke:#000000;stroke-width:3;stroke-linecap:round;stroke-linejoin:miter;stroke-miterlimit:4;stroke-opacity:1;stroke-dasharray:none;stroke-dashoffset:0"
       id="rect8319-9-8"
       width="24.243662"
       height="38.385796"
       x="809.94275"
       y="143.83672" />
    <rect
       style="fill:#ffff00;fill-opacity:1;fill-rule:evenodd;stroke:#000000;stroke-width:3;stroke-linecap:round;stroke-linejoin:miter;stroke-miterlimit:4;stroke-opacity:1;stroke-dasharray:none;stroke-dashoffset:0"
       id="rect8319-3-0-9"
       width="24.243662"
       height="38.385796"
       x="779.09906"
       y="188.77544" />
    <rect
       style="fill:#ffff00;fill-opacity:1;fill-rule:evenodd;stroke:#000000;stroke-width:3;stroke-linecap:round;stroke-linejoin:miter;stroke-miterlimit:4;stroke-opacity:1;stroke-dasharray:none;stroke-dashoffset:0"
       id="rect8319-6-5-4-4"
       width="24.243662"
       height="38.385796"
       x="779.04651"
       y="144.13258" />
    <rect
       style="fill:#ffff00;fill-opacity:1;fill-rule:evenodd;stroke:#000000;stroke-width:3;stroke-linecap:round;stroke-linejoin:miter;stroke-miterlimit:4;stroke-opacity:1;stroke-dasharray:none;stroke-dashoffset:0"
       id="rect8319-3-0-2-6"
       width="24.243662"
       height="38.385796"
       x="810.20892"
       y="188.98466" />
    <rect
       style="fill:#ffff00;fill-opacity:1;fill-rule:evenodd;stroke:#000000;stroke-width:3;stroke-linecap:round;stroke-linejoin:miter;stroke-miterlimit:4;stroke-opacity:1;stroke-dasharray:none;stroke-dashoffset:0"
       id="rect8319-3-0-9-5"
       width="24.243662"
       height="38.385796"
       x="-261.1922"
       y="786.64459"
       transform="matrix(0,-1,1,0,0,0)" />
    <rect
       style="fill:#ffff00;fill-opacity:1;fill-rule:evenodd;stroke:#000000;stroke-width:3;stroke-linecap:round;stroke-linejoin:miter;stroke-miterlimit:4;stroke-opacity:1;stroke-dasharray:none;stroke-dashoffset:0"
       id="rect8319-3-0-2-6-0"
       width="24.243662"
       height="38.385796"
       x="-125.33"
       y="946.68298"
       transform="matrix(0,-1,1,0,0,0)" />
    <path
       sodipodi:type="arc"
       style="fill:#ffffff;fill-opacity:1;fill-rule:evenodd;stroke:#000000;stroke-width:3;stroke-linecap:round;stroke-linejoin:miter;stroke-miterlimit:4;stroke-opacity:1;stroke-dasharray:none;stroke-dashoffset:0"
       id="path8222-7"
       sodipodi:cx="289.91379"
       sodipodi:cy="390.71228"
       sodipodi:rx="5.0507627"
       sodipodi:ry="5.0507627"
       d="m 294.96455,390.71228 c 0,2.78946 -2.2613,5.05076 -5.05076,5.05076 -2.78946,0 -5.05076,-2.2613 -5.05076,-5.05076 0,-2.78946 2.2613,-5.05076 5.05076,-5.05076 2.78946,0 5.05076,2.2613 5.05076,5.05076 z"
       transform="translate(642.90718,-278.32299)" />
    <path
       style="fill:none;stroke:#000000;stroke-width:3;stroke-linecap:butt;stroke-linejoin:miter;stroke-miterlimit:4;stroke-opacity:1;stroke-dasharray:none"
       d="m 938.17811,112.38929 7.5,0"
       id="path8503"
       inkscape:connector-curvature="0" />
    <path
       sodipodi:type="arc"
       style="fill:#ffffff;fill-opacity:1;fill-rule:evenodd;stroke:#000000;stroke-width:3;stroke-linecap:round;stroke-linejoin:miter;stroke-miterlimit:4;stroke-opacity:1;stroke-dasharray:none;stroke-dashoffset:0"
       id="path8222-7-7"
       sodipodi:cx="289.91379"
       sodipodi:cy="390.71228"
       sodipodi:rx="5.0507627"
       sodipodi:ry="5.0507627"
       d="m 294.96455,390.71228 c 0,2.78946 -2.2613,5.05076 -5.05076,5.05076 -2.78946,0 -5.05076,-2.2613 -5.05076,-5.05076 0,-2.78946 2.2613,-5.05076 5.05076,-5.05076 2.78946,0 5.05076,2.2613 5.05076,5.05076 z"
       transform="matrix(-1,0,0,1,1128.0665,-140.1087)" />
    <path
       style="fill:#ffff00;stroke:#000000;stroke-width:3;stroke-linecap:butt;stroke-linejoin:miter;stroke-miterlimit:4;stroke-opacity:1;stroke-dasharray:none"
       d="m 832.79559,250.60357 -7.5,0"
       id="path8503-8"
       inkscape:connector-curvature="0" />
    <rect
       style="fill:#800080;fill-opacity:1;fill-rule:evenodd;stroke:#000000;stroke-width:3;stroke-linecap:round;stroke-linejoin:miter;stroke-miterlimit:4;stroke-opacity:1;stroke-dasharray:none;stroke-dashoffset:0"
       id="rect8670"
       width="56.42857"
       height="99.285713"
       x="1227.5352"
       y="129.175" />
    <rect
       style="fill:#00ffff;fill-opacity:1;fill-rule:evenodd;stroke:#000000;stroke-width:3;stroke-linecap:round;stroke-linejoin:miter;stroke-miterlimit:4;stroke-opacity:1;stroke-dasharray:none;stroke-dashoffset:0"
       id="rect8672"
       width="40"
       height="26.428572"
       x="1144.2495"
       y="145.60359" />
    <path
       style="fill:none;stroke:#000000;stroke-width:3;stroke-linecap:butt;stroke-linejoin:miter;stroke-miterlimit:4;stroke-opacity:1;stroke-dasharray:none"
       d="m 1164.2495,144.88929 0,-13.57142 27.8572,0"
       id="path8674"
       inkscape:connector-curvature="0" />
    <path
       style="fill:none;stroke:#000000;stroke-width:3;stroke-linecap:butt;stroke-linejoin:miter;stroke-miterlimit:4;stroke-opacity:1;stroke-dasharray:none"
       d="m 1156.3924,172.74644 0,13.57143"
       id="path8676"
       inkscape:connector-curvature="0" />
    <path
       style="fill:none;stroke:#000000;stroke-width:3;stroke-linecap:butt;stroke-linejoin:miter;stroke-miterlimit:4;stroke-opacity:1;stroke-dasharray:none"
       d="m 1148.5353,111.31787 50.7142,-0.71429 0,-30 30,0.71429"
       id="path8682"
       inkscape:connector-curvature="0" />
    <path
       style="fill:none;stroke:#000000;stroke-width:3;stroke-linecap:butt;stroke-linejoin:miter;stroke-miterlimit:4;stroke-opacity:1;stroke-dasharray:none"
       d="m 1242.1067,249.17501 51.7143,0 0,-137.85714"
       id="path8684"
       inkscape:connector-curvature="0"
       sodipodi:nodetypes="ccc" />
    <path
       style="fill:none;stroke:#000000;stroke-width:3;stroke-linecap:butt;stroke-linejoin:miter;stroke-miterlimit:4;stroke-opacity:1;stroke-dasharray:none"
       d="m 1262.821,228.46072 0,21.42857"
       id="path8686"
       inkscape:connector-curvature="0" />
    <path
       style="fill:none;stroke:#000000;stroke-width:3;stroke-linecap:butt;stroke-linejoin:miter;stroke-miterlimit:4;stroke-opacity:1;stroke-dasharray:none"
       d="m 1198.5353,110.60358 17.8571,0 0,48.57142 10.7143,-0.71428"
       id="path8688"
       inkscape:connector-curvature="0" />
    <path
       style="fill:none;stroke:#000000;stroke-width:3;stroke-linecap:butt;stroke-linejoin:miter;stroke-miterlimit:4;stroke-opacity:1;stroke-dasharray:none"
       d="m 1152.1067,110.60358 0,34.28571"
       id="path8692"
       inkscape:connector-curvature="0" />
    <path
       style="fill:none;stroke:#000000;stroke-width:3;stroke-linecap:butt;stroke-linejoin:miter;stroke-miterlimit:4;stroke-opacity:1;stroke-dasharray:none"
       d="m 1261.3924,237.03215 -81.4286,0 -0.7143,-64.28571"
       id="path8694"
       inkscape:connector-curvature="0" />
    <rect
       style="fill:#000000;fill-opacity:1;fill-rule:evenodd;stroke:#000000;stroke-width:3;stroke-linecap:round;stroke-linejoin:miter;stroke-miterlimit:4;stroke-opacity:1;stroke-dasharray:none;stroke-dashoffset:0"
       id="rect8295-5"
       width="11.111678"
       height="11.111678"
       x="-214.04973"
       y="-1208.7113"
       transform="matrix(0,-1,-1,0,0,0)" />
    <rect
       style="fill:#ff0000;fill-opacity:1;fill-rule:evenodd;stroke:#000000;stroke-width:3;stroke-linecap:round;stroke-linejoin:miter;stroke-miterlimit:4;stroke-opacity:1;stroke-dasharray:none;stroke-dashoffset:0"
       id="rect8295-3-0"
       width="11.111678"
       height="11.111678"
       x="-192.55479"
       y="-1208.7566"
       transform="matrix(0,-1,-1,0,0,0)"
       inkscape:transform-center-x="-7.0558391" />
    <path
       style="fill:none;stroke:#000000;stroke-width:3;stroke-linecap:butt;stroke-linejoin:miter;stroke-miterlimit:4;stroke-opacity:1;stroke-dasharray:none"
       d="m 1209.2495,208.46072 16.4286,0"
       id="path8719"
       inkscape:connector-curvature="0" />
    <path
       style="fill:none;stroke:#000000;stroke-width:3;stroke-linecap:butt;stroke-linejoin:miter;stroke-miterlimit:4;stroke-opacity:1;stroke-dasharray:none"
       d="m 1209.2495,186.31787 17.8572,0"
       id="path8723"
       inkscape:connector-curvature="0" />
    <text
       xml:space="preserve"
       style="font-size:20px;font-style:normal;font-weight:normal;text-align:center;line-height:125%;letter-spacing:0px;word-spacing:0px;text-anchor:middle;fill:#000000;fill-opacity:1;stroke:none;font-family:Sans"
       x="1134.1636"
       y="-4.3588996"
       id="text8904"
       sodipodi:linespacing="125%"><tspan
         sodipodi:role="line"
         id="tspan8906"
         x="1134.1636"
         y="-4.3588996"
         style="font-weight:bold">Board View</tspan><tspan
         sodipodi:role="line"
         x="1134.1636"
         y="20.6411"
         id="tspan8908"
         style="font-weight:bold">Top</tspan></text>
    <text
       xml:space="preserve"
       style="font-size:20px;font-style:normal;font-weight:normal;text-align:center;line-height:125%;letter-spacing:0px;word-spacing:0px;text-anchor:middle;fill:#000000;fill-opacity:1;stroke:none;font-family:Sans"
       x="823.44214"
       y="-4.5213752"
       id="text8910"
       sodipodi:linespacing="125%"><tspan
         sodipodi:role="line"
         id="tspan8912"
         x="823.44214"
         y="-4.5213752"
         style="font-weight:bold">Board View</tspan><tspan
         sodipodi:role="line"
         x="823.44214"
         y="20.478624"
         id="tspan8914"
         style="font-weight:bold">Bottom</tspan></text>
    <text
       xml:space="preserve"
       style="font-size:20px;font-style:normal;font-weight:normal;line-height:125%;letter-spacing:0px;word-spacing:0px;fill:#000000;fill-opacity:1;stroke:none;font-family:Sans"
       x="1239.9637"
       y="87.460739"
       id="text8947"
       sodipodi:linespacing="125%"><tspan
         sodipodi:role="line"
         id="tspan8949"
         x="1239.9637"
         y="87.460739">CPU</tspan></text>
    <text
       xml:space="preserve"
       style="font-size:20px;font-style:normal;font-weight:normal;line-height:125%;letter-spacing:0px;word-spacing:0px;fill:#000000;fill-opacity:1;stroke:none;font-family:Sans"
       x="51.392403"
       y="346.74646"
       id="text9037"
       sodipodi:linespacing="125%"><tspan
         sodipodi:role="line"
         id="tspan9039"
         x="51.392403"
         y="346.74646"
         style="font-weight:bold">Key</tspan></text>
    <path
       style="fill:none;stroke:#000000;stroke-width:3;stroke-linecap:butt;stroke-linejoin:miter;stroke-miterlimit:4;stroke-opacity:1;stroke-dasharray:none"
       d="m 1106.0996,243.60354 0,-184.28572 124.2857,0"
       id="path9175"
       inkscape:connector-curvature="0" />
    <path
       style="fill:none;stroke:#000000;stroke-width:3;stroke-linecap:butt;stroke-linejoin:miter;stroke-miterlimit:4;stroke-opacity:1;stroke-dasharray:none"
       d="m 1128.9567,242.88925 0,-170.71429 101.4286,0"
       id="path9179"
       inkscape:connector-curvature="0" />
    <path
       style="fill:none;stroke:#000000;stroke-width:3;stroke-linecap:butt;stroke-linejoin:miter;stroke-miterlimit:4;stroke-opacity:1;stroke-dasharray:none"
       d="m 1304.9555,47.86013 60.6091,0"
       id="path3863"
       inkscape:connector-curvature="0" />
    <path
       style="fill:none;stroke:#000000;stroke-width:3;stroke-linecap:butt;stroke-linejoin:miter;stroke-miterlimit:4;stroke-opacity:1;stroke-dasharray:none"
       d="m 1304.9555,269.08354 60.6091,0"
       id="path3863-1"
       inkscape:connector-curvature="0" />
    <path
       style="fill:none;stroke:#000000;stroke-width:1px;stroke-linecap:butt;stroke-linejoin:miter;stroke-opacity:1;marker-start:url(#Arrow1Lstart);marker-end:url(#Arrow1Lend)"
       d="m 1348.392,47.86014 0,222.23355"
       id="path3883"
       inkscape:connector-curvature="0" />
    <text
       xml:space="preserve"
       style="font-size:20px;font-style:normal;font-weight:normal;line-height:125%;letter-spacing:0px;word-spacing:0px;fill:#000000;fill-opacity:1;stroke:none;font-family:Sans"
       x="1353.4427"
       y="162.00734"
       id="text5457"
       sodipodi:linespacing="125%"><tspan
         sodipodi:role="line"
         id="tspan5459"
         x="1353.4427"
         y="162.00734">40mm</tspan></text>
    <g
       id="g5526"
       transform="matrix(0,1,-1,0,1670.8693,-481.75807)">
      <path
         inkscape:connector-curvature="0"
         id="path3863-19"
         d="m 749.83145,367.56833 60.60915,0"
         style="fill:none;stroke:#000000;stroke-width:3;stroke-linecap:butt;stroke-linejoin:miter;stroke-miterlimit:4;stroke-opacity:1;stroke-dasharray:none" />
      <path
         inkscape:connector-curvature="0"
         id="path3863-1-8"
         d="m 749.83146,588.79174 60.60915,0"
         style="fill:none;stroke:#000000;stroke-width:3;stroke-linecap:butt;stroke-linejoin:miter;stroke-miterlimit:4;stroke-opacity:1;stroke-dasharray:none" />
      <path
         inkscape:connector-curvature="0"
         id="path3883-1"
         d="m 793.26802,367.56834 0,222.23355"
         style="fill:none;stroke:#000000;stroke-width:1px;stroke-linecap:butt;stroke-linejoin:miter;stroke-opacity:1;marker-start:url(#Arrow1Lstart);marker-end:url(#Arrow1Lend)" />
    </g>
    <text
       xml:space="preserve"
       style="font-size:20px;font-style:normal;font-weight:normal;line-height:125%;letter-spacing:0px;word-spacing:0px;fill:#000000;fill-opacity:1;stroke:none;font-family:Sans"
       x="1161.3695"
       y="333.22314"
       id="text5457-0"
       sodipodi:linespacing="125%"><tspan
         sodipodi:role="line"
         id="tspan5459-3"
         x="1161.3695"
         y="333.22314">40mm</tspan></text>
  </g>
</svg>
