<?xml version="1.0" encoding="UTF-8" standalone="no"?>
<!-- Created with Inkscape (http://www.inkscape.org/) -->

<svg
   xmlns:dc="http://purl.org/dc/elements/1.1/"
   xmlns:cc="http://creativecommons.org/ns#"
   xmlns:rdf="http://www.w3.org/1999/02/22-rdf-syntax-ns#"
   xmlns:svg="http://www.w3.org/2000/svg"
   xmlns="http://www.w3.org/2000/svg"
   xmlns:sodipodi="http://sodipodi.sourceforge.net/DTD/sodipodi-0.dtd"
   xmlns:inkscape="http://www.inkscape.org/namespaces/inkscape"
   width="912.25128"
   height="701.46924"
   id="svg5184"
   version="1.1"
   inkscape:version="0.48.1 "
   sodipodi:docname="thrust vectoring.svg"
   inkscape:export-filename="C:\Users\Jim\Desktop\rocket and HAB stuff\rockoon design\thrust vectoring.png"
   inkscape:export-xdpi="300"
   inkscape:export-ydpi="300">
  <defs
     id="defs5186">
    <marker
       inkscape:stockid="Arrow2Lend"
       orient="auto"
       refY="0"
       refX="0"
       id="Arrow2Lend"
       style="overflow:visible">
      <path
         id="path4048"
         style="font-size:12px;fill-rule:evenodd;stroke-width:0.625;stroke-linejoin:round"
         d="M 8.7185878,4.0337352 -2.2072895,0.01601326 8.7185884,-4.0017078 c -1.7454984,2.3720609 -1.7354408,5.6174519 -6e-7,8.035443 z"
         transform="matrix(-1.1,0,0,-1.1,-1.1,0)"
         inkscape:connector-curvature="0" />
    </marker>
    <marker
       inkscape:stockid="Arrow2Mend"
       orient="auto"
       refY="0"
       refX="0"
       id="Arrow2Mend"
       style="overflow:visible">
      <path
         id="path4054"
         style="font-size:12px;fill-rule:evenodd;stroke-width:0.625;stroke-linejoin:round"
         d="M 8.7185878,4.0337352 -2.2072895,0.01601326 8.7185884,-4.0017078 c -1.7454984,2.3720609 -1.7354408,5.6174519 -6e-7,8.035443 z"
         transform="scale(-0.6,-0.6)"
         inkscape:connector-curvature="0" />
    </marker>
    <marker
       inkscape:stockid="Arrow1Mend"
       orient="auto"
       refY="0"
       refX="0"
       id="Arrow1Mend"
       style="overflow:visible">
      <path
         id="path4036"
         d="M 0,0 5,-5 -12.5,0 5,5 0,0 z"
         style="fill-rule:evenodd;stroke:#000000;stroke-width:1pt;marker-start:none"
         transform="matrix(-0.4,0,0,-0.4,-4,0)"
         inkscape:connector-curvature="0" />
    </marker>
    <marker
       inkscape:stockid="Arrow2Mstart"
       orient="auto"
       refY="0"
       refX="0"
       id="Arrow2Mstart"
       style="overflow:visible">
      <path
         inkscape:connector-curvature="0"
         id="path3999"
         style="font-size:12px;fill-rule:evenodd;stroke-width:0.625;stroke-linejoin:round"
         d="M 8.7185878,4.0337352 -2.2072895,0.01601326 8.7185884,-4.0017078 c -1.7454984,2.3720609 -1.7354408,5.6174519 -6e-7,8.035443 z"
         transform="scale(0.6,0.6)" />
    </marker>
    <marker
       inkscape:stockid="Arrow2Mstart"
       orient="auto"
       refY="0"
       refX="0"
       id="marker5205"
       style="overflow:visible">
      <path
         inkscape:connector-curvature="0"
         id="path5207"
         style="font-size:12px;fill-rule:evenodd;stroke-width:0.625;stroke-linejoin:round"
         d="M 8.7185878,4.0337352 -2.2072895,0.01601326 8.7185884,-4.0017078 c -1.7454984,2.3720609 -1.7354408,5.6174519 -6e-7,8.035443 z"
         transform="scale(0.6,0.6)" />
    </marker>
    <marker
       inkscape:stockid="Arrow2Mstart"
       orient="auto"
       refY="0"
       refX="0"
       id="marker5209"
       style="overflow:visible">
      <path
         inkscape:connector-curvature="0"
         id="path5211"
         style="font-size:12px;fill-rule:evenodd;stroke-width:0.625;stroke-linejoin:round"
         d="M 8.7185878,4.0337352 -2.2072895,0.01601326 8.7185884,-4.0017078 c -1.7454984,2.3720609 -1.7354408,5.6174519 -6e-7,8.035443 z"
         transform="scale(0.6,0.6)" />
    </marker>
    <marker
       inkscape:stockid="Arrow2Mstart"
       orient="auto"
       refY="0"
       refX="0"
       id="marker5213"
       style="overflow:visible">
      <path
         inkscape:connector-curvature="0"
         id="path5215"
         style="font-size:12px;fill-rule:evenodd;stroke-width:0.625;stroke-linejoin:round"
         d="M 8.7185878,4.0337352 -2.2072895,0.01601326 8.7185884,-4.0017078 c -1.7454984,2.3720609 -1.7354408,5.6174519 -6e-7,8.035443 z"
         transform="scale(0.6,0.6)" />
    </marker>
    <marker
       inkscape:stockid="Arrow2Mstart"
       orient="auto"
       refY="0"
       refX="0"
       id="marker5217"
       style="overflow:visible">
      <path
         inkscape:connector-curvature="0"
         id="path5219"
         style="font-size:12px;fill-rule:evenodd;stroke-width:0.625;stroke-linejoin:round"
         d="M 8.7185878,4.0337352 -2.2072895,0.01601326 8.7185884,-4.0017078 c -1.7454984,2.3720609 -1.7354408,5.6174519 -6e-7,8.035443 z"
         transform="scale(0.6,0.6)" />
    </marker>
    <marker
       inkscape:stockid="Arrow2Mstart"
       orient="auto"
       refY="0"
       refX="0"
       id="marker5221"
       style="overflow:visible">
      <path
         inkscape:connector-curvature="0"
         id="path5223"
         style="font-size:12px;fill-rule:evenodd;stroke-width:0.625;stroke-linejoin:round"
         d="M 8.7185878,4.0337352 -2.2072895,0.01601326 8.7185884,-4.0017078 c -1.7454984,2.3720609 -1.7354408,5.6174519 -6e-7,8.035443 z"
         transform="scale(0.6,0.6)" />
    </marker>
    <marker
       inkscape:stockid="Arrow2Mstart"
       orient="auto"
       refY="0"
       refX="0"
       id="Arrow2Mstart-8"
       style="overflow:visible">
      <path
         inkscape:connector-curvature="0"
         id="path3999-5"
         style="font-size:12px;fill-rule:evenodd;stroke-width:0.625;stroke-linejoin:round"
         d="M 8.7185878,4.0337352 -2.2072895,0.01601326 8.7185884,-4.0017078 c -1.7454984,2.3720609 -1.7354408,5.6174519 -6e-7,8.035443 z"
         transform="scale(0.6,0.6)" />
    </marker>
    <marker
       inkscape:stockid="Arrow2Mstart"
       orient="auto"
       refY="0"
       refX="0"
       id="Arrow2Mstart-83"
       style="overflow:visible">
      <path
         inkscape:connector-curvature="0"
         id="path3999-4"
         style="font-size:12px;fill-rule:evenodd;stroke-width:0.625;stroke-linejoin:round"
         d="M 8.7185878,4.0337352 -2.2072895,0.01601326 8.7185884,-4.0017078 c -1.7454984,2.3720609 -1.7354408,5.6174519 -6e-7,8.035443 z"
         transform="scale(0.6,0.6)" />
    </marker>
    <marker
       inkscape:stockid="Arrow2Mstart"
       orient="auto"
       refY="0"
       refX="0"
       id="Arrow2Mstart-2"
       style="overflow:visible">
      <path
         inkscape:connector-curvature="0"
         id="path3999-0"
         style="font-size:12px;fill-rule:evenodd;stroke-width:0.625;stroke-linejoin:round"
         d="M 8.7185878,4.0337352 -2.2072895,0.01601326 8.7185884,-4.0017078 c -1.7454984,2.3720609 -1.7354408,5.6174519 -6e-7,8.035443 z"
         transform="scale(0.6,0.6)" />
    </marker>
    <marker
       inkscape:stockid="Arrow2Mstart"
       orient="auto"
       refY="0"
       refX="0"
       id="Arrow2Mstart-86"
       style="overflow:visible">
      <path
         inkscape:connector-curvature="0"
         id="path3999-59"
         style="font-size:12px;fill-rule:evenodd;stroke-width:0.625;stroke-linejoin:round"
         d="M 8.7185878,4.0337352 -2.2072895,0.01601326 8.7185884,-4.0017078 c -1.7454984,2.3720609 -1.7354408,5.6174519 -6e-7,8.035443 z"
         transform="scale(0.6,0.6)" />
    </marker>
    <marker
       inkscape:stockid="Arrow2Mstart"
       orient="auto"
       refY="0"
       refX="0"
       id="Arrow2Mstart-89"
       style="overflow:visible">
      <path
         inkscape:connector-curvature="0"
         id="path3999-56"
         style="font-size:12px;fill-rule:evenodd;stroke-width:0.625;stroke-linejoin:round"
         d="M 8.7185878,4.0337352 -2.2072895,0.01601326 8.7185884,-4.0017078 c -1.7454984,2.3720609 -1.7354408,5.6174519 -6e-7,8.035443 z"
         transform="scale(0.6,0.6)" />
    </marker>
    <marker
       inkscape:stockid="Arrow2Lend"
       orient="auto"
       refY="0"
       refX="0"
       id="Arrow2Lend-8"
       style="overflow:visible">
      <path
         inkscape:connector-curvature="0"
         id="path4048-7"
         style="font-size:12px;fill-rule:evenodd;stroke-width:0.625;stroke-linejoin:round"
         d="M 8.7185878,4.0337352 -2.2072895,0.01601326 8.7185884,-4.0017078 c -1.7454984,2.3720609 -1.7354408,5.6174519 -6e-7,8.035443 z"
         transform="matrix(-1.1,0,0,-1.1,-1.1,0)" />
    </marker>
    <marker
       inkscape:stockid="Arrow2Mend"
       orient="auto"
       refY="0"
       refX="0"
       id="Arrow2Mend-7"
       style="overflow:visible">
      <path
         inkscape:connector-curvature="0"
         id="path4054-1"
         style="font-size:12px;fill-rule:evenodd;stroke-width:0.625;stroke-linejoin:round"
         d="M 8.7185878,4.0337352 -2.2072895,0.01601326 8.7185884,-4.0017078 c -1.7454984,2.3720609 -1.7354408,5.6174519 -6e-7,8.035443 z"
         transform="scale(-0.6,-0.6)" />
    </marker>
    <marker
       inkscape:stockid="Arrow2Mend"
       orient="auto"
       refY="0"
       refX="0"
       id="marker6208"
       style="overflow:visible">
      <path
         inkscape:connector-curvature="0"
         id="path6210"
         style="font-size:12px;fill-rule:evenodd;stroke-width:0.625;stroke-linejoin:round"
         d="M 8.7185878,4.0337352 -2.2072895,0.01601326 8.7185884,-4.0017078 c -1.7454984,2.3720609 -1.7354408,5.6174519 -6e-7,8.035443 z"
         transform="scale(-0.6,-0.6)" />
    </marker>
    <marker
       inkscape:stockid="Arrow2Mend"
       orient="auto"
       refY="0"
       refX="0"
       id="marker6212"
       style="overflow:visible">
      <path
         inkscape:connector-curvature="0"
         id="path6214"
         style="font-size:12px;fill-rule:evenodd;stroke-width:0.625;stroke-linejoin:round"
         d="M 8.7185878,4.0337352 -2.2072895,0.01601326 8.7185884,-4.0017078 c -1.7454984,2.3720609 -1.7354408,5.6174519 -6e-7,8.035443 z"
         transform="scale(-0.6,-0.6)" />
    </marker>
    <marker
       inkscape:stockid="Arrow2Mend"
       orient="auto"
       refY="0"
       refX="0"
       id="marker6216"
       style="overflow:visible">
      <path
         inkscape:connector-curvature="0"
         id="path6218"
         style="font-size:12px;fill-rule:evenodd;stroke-width:0.625;stroke-linejoin:round"
         d="M 8.7185878,4.0337352 -2.2072895,0.01601326 8.7185884,-4.0017078 c -1.7454984,2.3720609 -1.7354408,5.6174519 -6e-7,8.035443 z"
         transform="scale(-0.6,-0.6)" />
    </marker>
    <marker
       inkscape:stockid="Arrow2Mend"
       orient="auto"
       refY="0"
       refX="0"
       id="marker6220"
       style="overflow:visible">
      <path
         inkscape:connector-curvature="0"
         id="path6222"
         style="font-size:12px;fill-rule:evenodd;stroke-width:0.625;stroke-linejoin:round"
         d="M 8.7185878,4.0337352 -2.2072895,0.01601326 8.7185884,-4.0017078 c -1.7454984,2.3720609 -1.7354408,5.6174519 -6e-7,8.035443 z"
         transform="scale(-0.6,-0.6)" />
    </marker>
  </defs>
  <sodipodi:namedview
     inkscape:document-units="mm"
     pagecolor="#ffffff"
     bordercolor="#666666"
     borderopacity="1.0"
     inkscape:pageopacity="0.0"
     inkscape:pageshadow="2"
     inkscape:zoom="0.61399264"
     inkscape:cx="283.23641"
     inkscape:cy="376.17037"
     inkscape:current-layer="layer1"
     id="namedview5188"
     showgrid="false"
     inkscape:window-width="1366"
     inkscape:window-height="706"
     inkscape:window-x="-8"
     inkscape:window-y="-8"
     inkscape:window-maximized="1"
     units="in"
     fit-margin-top="0.1"
     fit-margin-left="0.1"
     fit-margin-right="0.1"
     fit-margin-bottom="0.1" />
  <metadata
     id="metadata5190">
    <rdf:RDF>
      <cc:Work
         rdf:about="">
        <dc:format>image/svg+xml</dc:format>
        <dc:type
           rdf:resource="http://purl.org/dc/dcmitype/StillImage" />
        <dc:title></dc:title>
      </cc:Work>
    </rdf:RDF>
  </metadata>
  <g
     inkscape:label="Layer 1"
     inkscape:groupmode="layer"
     id="layer1"
     transform="translate(-351.23361,-35.404919)">
    <path
       style="fill:#000000;stroke:#000000;stroke-width:2;stroke-linecap:butt;stroke-linejoin:miter;stroke-miterlimit:4;stroke-opacity:1;stroke-dasharray:none"
       d="m 518.52808,355.62601 79.85978,251.207 0,58.4397 -107.29913,0"
       id="path3763-1"
       inkscape:connector-curvature="0"
       sodipodi:nodetypes="cccc" />
    <path
       style="fill:#000000;stroke:#000000;stroke-width:2;stroke-linecap:butt;stroke-linejoin:miter;stroke-miterlimit:4;stroke-opacity:1;stroke-dasharray:none"
       d="m 441.09339,355.53694 -79.85978,251.207 0,58.4397 107.29913,0"
       id="path3763-1-7"
       inkscape:connector-curvature="0"
       sodipodi:nodetypes="cccc" />
    <path
       style="fill:#ececec;stroke:#000000;stroke-width:2;stroke-linecap:round;stroke-linejoin:miter;stroke-miterlimit:4;stroke-opacity:1;stroke-dasharray:none;stroke-dashoffset:0"
       d="m 480.15625,45.40625 c -0.29327,-0.0063 -0.58066,0.01071 -0.875,0.03125 -1.94871,0.135967 -3.92595,0.866642 -5.90625,2.21875 l -2.53125,2.0625 c -16.71516,16.000833 -28.40439,73.31351 -29.65625,139.0625 l -0.0312,0 0,3.09375 c -0.0801,5.72326 -0.0818,11.4914 0,17.3125 l 0,456.03125 27.71875,0 0,0.0937 22.0625,0 0,-0.0937 27.59375,0 0,-450.1875 c 0.30503,-13.21729 0.1787,-26.7924 -0.40625,-40.5 -3.21658,-75.375173 -19.49253,-128.73005 -37.9688,-129.125 z"
       id="path2993"
       inkscape:connector-curvature="0" />
    <path
       style="fill:none;stroke:#000000;stroke-width:2;stroke-linecap:butt;stroke-linejoin:miter;stroke-miterlimit:4;stroke-opacity:1;stroke-dasharray:none"
       d="m 479.90206,353.98579 0,311.07397"
       id="path3773"
       inkscape:connector-curvature="0"
       sodipodi:nodetypes="cc" />
    <g
       id="g6842"
       transform="translate(162.8684,55.375257)"
       style="stroke-width:2;stroke-miterlimit:4;stroke-dasharray:none">
      <path
         transform="matrix(0.33036941,0,0,0.33036941,143.62885,300.48261)"
         d="m 554.28574,181.95163 c 0,17.75201 -14.39085,32.14286 -32.14286,32.14286 -17.75201,0 -32.14285,-14.39085 -32.14285,-32.14286 0,-17.75201 14.39084,-32.14286 32.14285,-32.14286 17.75201,0 32.14286,14.39085 32.14286,32.14286 z"
         sodipodi:ry="32.142857"
         sodipodi:rx="32.142857"
         sodipodi:cy="181.95163"
         sodipodi:cx="522.14288"
         id="path5054-0-8-4"
         style="fill:#ffffff;fill-opacity:1;stroke:#000000;stroke-width:6.05382919;stroke-linecap:round;stroke-linejoin:miter;stroke-miterlimit:4;stroke-opacity:1;stroke-dasharray:none;stroke-dashoffset:0"
         sodipodi:type="arc" />
      <path
         sodipodi:end="7.8476245"
         sodipodi:start="6.25504"
         transform="matrix(0.30842338,0,0,0.30842338,155.48537,305.22567)"
         d="m 554.27301,181.04708 c 0.49957,17.74498 -13.4806,32.53511 -31.22558,33.03468 -0.23335,0.007 -0.46677,0.0106 -0.70021,0.0121 l -0.20434,-32.14221 z"
         sodipodi:ry="32.142857"
         sodipodi:rx="32.142857"
         sodipodi:cy="181.95163"
         sodipodi:cx="522.14288"
         id="path5054-0-8-4-6"
         style="fill:#000000;fill-opacity:1;stroke:#000000;stroke-width:6.48459291;stroke-linecap:round;stroke-linejoin:miter;stroke-miterlimit:4;stroke-opacity:1;stroke-dasharray:none;stroke-dashoffset:0"
         sodipodi:type="arc" />
      <path
         sodipodi:end="6.2846665"
         sodipodi:start="4.7234528"
         transform="matrix(-0.30790376,0,0,0.30790376,476.25811,304.12772)"
         d="m 522.4985,149.81074 c 17.63076,0.19507 31.81332,14.55668 31.7872,32.1885 l -32.14282,-0.0476 z"
         sodipodi:ry="32.142857"
         sodipodi:rx="32.142857"
         sodipodi:cy="181.95163"
         sodipodi:cx="522.14288"
         id="path5054-0-8-4-6-6"
         style="fill:#000000;fill-opacity:1;stroke:#000000;stroke-width:6.49553633;stroke-linecap:round;stroke-linejoin:miter;stroke-miterlimit:4;stroke-opacity:1;stroke-dasharray:none;stroke-dashoffset:0"
         sodipodi:type="arc" />
    </g>
    <g
       id="g6927"
       transform="translate(-34.210942,-261.00595)"
       style="stroke-width:2;stroke-miterlimit:4;stroke-dasharray:none">
      <path
         transform="matrix(0.33036941,0,0,0.33036941,342.17269,731.63157)"
         d="m 554.28574,181.95163 c 0,17.75201 -14.39085,32.14286 -32.14286,32.14286 -17.75201,0 -32.14285,-14.39085 -32.14285,-32.14286 0,-17.75201 14.39084,-32.14286 32.14285,-32.14286 17.75201,0 32.14286,14.39085 32.14286,32.14286 z"
         sodipodi:ry="32.142857"
         sodipodi:rx="32.142857"
         sodipodi:cy="181.95163"
         sodipodi:cx="522.14288"
         id="path5054-0-6"
         style="fill:#ffffff;fill-opacity:1;stroke:#000000;stroke-width:6.05382919;stroke-linecap:round;stroke-linejoin:miter;stroke-miterlimit:4;stroke-opacity:1;stroke-dasharray:none;stroke-dashoffset:0"
         sodipodi:type="arc" />
      <path
         transform="matrix(1.3412392,0,0,1.3412392,48.5921,570.66877)"
         d="m 350,164.45163 c 0,1.38071 -1.11929,2.5 -2.5,2.5 -1.38071,0 -2.5,-1.11929 -2.5,-2.5 0,-1.38071 1.11929,-2.5 2.5,-2.5 1.38071,0 2.5,1.11929 2.5,2.5 z"
         sodipodi:ry="2.5"
         sodipodi:rx="2.5"
         sodipodi:cy="164.45163"
         sodipodi:cx="347.5"
         id="path5159-0"
         style="fill:#000000;fill-opacity:1;fill-rule:evenodd;stroke:#000000;stroke-width:1.49115837;stroke-linecap:round;stroke-linejoin:miter;stroke-miterlimit:4;stroke-opacity:1;stroke-dasharray:none;stroke-dashoffset:0"
         sodipodi:type="arc" />
    </g>
    <path
       style="fill:none;stroke:#000000;stroke-width:5.95452023;stroke-linecap:butt;stroke-linejoin:miter;stroke-miterlimit:4;stroke-opacity:1;stroke-dasharray:none;stroke-dashoffset:0;marker-end:url(#Arrow2Mend)"
       d="M 877.6644,712.25344 875.9501,167.0787"
       id="path7207"
       inkscape:connector-curvature="0" />
    <path
       style="fill:none;stroke:#000000;stroke-width:5.95452023;stroke-linecap:butt;stroke-linejoin:miter;stroke-miterlimit:4;stroke-opacity:1;stroke-dasharray:none;stroke-dashoffset:0;marker-end:url(#Arrow2Mend)"
       d="M 877.33556,712.70087 706.39722,167.60257"
       id="path7205-5"
       inkscape:connector-curvature="0"
       sodipodi:nodetypes="cc" />
    <path
       style="fill:none;stroke:#000000;stroke-width:5.95452023;stroke-linecap:butt;stroke-linejoin:miter;stroke-miterlimit:4;stroke-opacity:1;stroke-dasharray:none;stroke-dashoffset:0;marker-end:url(#Arrow2Mend)"
       d="M 879.07294,713.15819 1043.9499,168.05989"
       id="path7205"
       inkscape:connector-curvature="0"
       sodipodi:nodetypes="cc" />
    <path
       style="fill:none;stroke:#000000;stroke-width:5.95452023;stroke-linecap:butt;stroke-linejoin:miter;stroke-miterlimit:4;stroke-opacity:1;stroke-dasharray:none;marker-end:url(#Arrow2Mend)"
       d="m 875.59937,164.78175 -167.29104,0"
       id="path5530"
       inkscape:connector-curvature="0" />
    <path
       style="fill:none;stroke:#000000;stroke-width:5.95452023;stroke-linecap:butt;stroke-linejoin:miter;stroke-miterlimit:4;stroke-opacity:1;stroke-dasharray:none;marker-end:url(#Arrow2Mend)"
       d="m 875.57898,165.33541 167.29102,0"
       id="path5530-6"
       inkscape:connector-curvature="0" />
    <path
       style="fill:#b3b3b3;fill-opacity:1;stroke:#000000;stroke-width:2;stroke-linecap:butt;stroke-linejoin:miter;stroke-miterlimit:4;stroke-opacity:1;stroke-dasharray:none"
       d="m 464.42108,236.81529 c -1.61956,-3.62675 -3.43861,-6.85452 -6.94571,-6.70619 l -16.04696,5.02965 0,-15.32845 16.04696,6.7062 c 4.47299,1.63261 5.27751,-3.33807 6.70619,-7.18521 6.31328,0.55118 5.71321,4.06522 4.55791,7.81722 0.92644,11.89722 -2.18941,8.97274 -4.31839,9.66678 z"
       id="path3838-3-0-46"
       inkscape:connector-curvature="0"
       sodipodi:nodetypes="cccccccc" />
    <path
       style="fill:#b3b3b3;fill-opacity:1;stroke:#000000;stroke-width:2;stroke-linecap:butt;stroke-linejoin:miter;stroke-miterlimit:4;stroke-opacity:1;stroke-dasharray:none"
       d="m 456.44246,665.56971 c 10.36546,3.84934 23.7581,6.01698 19.35931,18.06868 l -18.0687,43.23578 41.29987,0 -13.55152,-43.23578 c -0.39965,-9.44928 8.29702,-14.3504 18.06867,-18.71402"
       id="path3838-3-3"
       inkscape:connector-curvature="0"
       sodipodi:nodetypes="cccccc" />
    <path
       sodipodi:type="arc"
       style="fill:#999999;stroke:#000000;stroke-width:1.49115837000000000;stroke-linecap:round;stroke-linejoin:miter;stroke-miterlimit:4;stroke-opacity:1;stroke-dasharray:none;stroke-dashoffset:0"
       id="path3932-7"
       sodipodi:cx="843.98242"
       sodipodi:cy="205.1781"
       sodipodi:rx="21.718279"
       sodipodi:ry="56.063465"
       d="m 865.7007,205.1781 c 0,30.963 -9.7236,56.06347 -21.71828,56.06347 -11.99467,0 -21.71828,-25.10047 -21.71828,-56.06347 0,-30.963 9.72361,-56.06346 21.71828,-56.06346 11.99468,0 21.71828,25.10046 21.71828,56.06346 z"
       transform="matrix(1.3412392,0,0,1.3412392,-652.62392,-153.03162)" />
    <path
       sodipodi:type="arc"
       style="fill:#ff0000;stroke:#000000;stroke-width:1.40822351000000000;stroke-linecap:round;stroke-linejoin:miter;stroke-miterlimit:4;stroke-opacity:1;stroke-dasharray:none;stroke-dashoffset:0"
       id="path3934-6"
       sodipodi:cx="700.79333"
       sodipodi:cy="218.56262"
       sodipodi:rx="3.7880721"
       sodipodi:ry="3.7880721"
       d="m 704.58141,218.56262 c 0,2.0921 -1.69598,3.78807 -3.78808,3.78807 -2.09209,0 -3.78807,-1.69597 -3.78807,-3.78807 0,-2.09209 1.69598,-3.78807 3.78807,-3.78807 2.0921,0 3.78808,1.69598 3.78808,3.78807 z"
       transform="matrix(1.2187963,0,0,1.2187963,-380.31062,-38.787783)" />
    <path
       style="fill:#ff0000;stroke:#000000;stroke-width:1.71633755999999990;stroke-linecap:butt;stroke-linejoin:miter;stroke-miterlimit:4;stroke-opacity:1;stroke-dasharray:none"
       d="m 470.47089,224.10742 6.10414,6.97617"
       id="path3936-3"
       inkscape:connector-curvature="0" />
    <path
       style="fill:#ff0000;stroke:#000000;stroke-width:1.71633755999999990;stroke-linecap:butt;stroke-linejoin:miter;stroke-miterlimit:4;stroke-opacity:1;stroke-dasharray:none"
       d="m 470.9069,230.93825 6.24948,-6.24949"
       id="path3938-1"
       inkscape:connector-curvature="0" />
    <path
       style="fill:none;stroke:#000000;stroke-width:2;stroke-linecap:butt;stroke-linejoin:miter;stroke-miterlimit:4;stroke-opacity:1;stroke-dasharray:none"
       d="m 441.76461,172.11313 15.18092,0"
       id="path3946-55"
       inkscape:connector-curvature="0"
       sodipodi:nodetypes="cc" />
    <path
       style="fill:none;stroke:#000000;stroke-width:2;stroke-linecap:butt;stroke-linejoin:miter;stroke-miterlimit:4;stroke-opacity:1;stroke-dasharray:none"
       d="m 500.95693,172.11313 15.71095,0"
       id="path3948-7"
       inkscape:connector-curvature="0"
       sodipodi:nodetypes="cc" />
    <text
       xml:space="preserve"
       style="font-size:19.20484161px;font-style:normal;font-weight:normal;line-height:125%;letter-spacing:0px;word-spacing:0px;fill:#000000;fill-opacity:1;stroke:none;font-family:Sans"
       x="458.09869"
       y="117.28625"
       id="text3950-4"
       sodipodi:linespacing="125%"><tspan
         sodipodi:role="line"
         id="tspan3952-4"
         x="458.09869"
         y="117.28625">CO<tspan
   style="font-size:12.4833231px;baseline-shift:sub"
   id="tspan3954-8">2</tspan></tspan><tspan
         sodipodi:role="line"
         x="458.09869"
         y="141.2923"
         id="tspan3956-7">Tank</tspan></text>
    <path
       sodipodi:type="arc"
       style="fill:#ff0000;stroke:#000000;stroke-width:1.40822351000000000;stroke-linecap:round;stroke-linejoin:miter;stroke-miterlimit:4;stroke-opacity:1;stroke-dasharray:none;stroke-dashoffset:0"
       id="path3934-6-5"
       sodipodi:cx="700.79333"
       sodipodi:cy="218.56262"
       sodipodi:rx="3.7880721"
       sodipodi:ry="3.7880721"
       d="m 704.58141,218.56262 c 0,2.0921 -1.69598,3.78807 -3.78808,3.78807 -2.09209,0 -3.78807,-1.69597 -3.78807,-3.78807 0,-2.09209 1.69598,-3.78807 3.78807,-3.78807 2.0921,0 3.78808,1.69598 3.78808,3.78807 z"
       transform="matrix(1.2187963,0,0,1.2187963,-367.631,-38.777949)" />
    <path
       style="fill:#ff0000;stroke:#000000;stroke-width:1.71633755999999990;stroke-linecap:butt;stroke-linejoin:miter;stroke-miterlimit:4;stroke-opacity:1;stroke-dasharray:none"
       d="m 483.15051,224.11726 6.10415,6.97616"
       id="path3936-3-3"
       inkscape:connector-curvature="0" />
    <path
       style="fill:#ff0000;stroke:#000000;stroke-width:1.71633755999999990;stroke-linecap:butt;stroke-linejoin:miter;stroke-miterlimit:4;stroke-opacity:1;stroke-dasharray:none"
       d="m 483.58652,230.94808 6.24949,-6.24948"
       id="path3938-1-5"
       inkscape:connector-curvature="0" />
    <path
       style="fill:#b3b3b3;fill-opacity:1;stroke:#000000;stroke-width:2;stroke-linecap:butt;stroke-linejoin:miter;stroke-miterlimit:4;stroke-opacity:1;stroke-dasharray:none"
       d="m 495.51957,236.29769 c 1.61956,-3.62675 3.43861,-6.85452 6.94571,-6.70619 l 16.04696,5.02965 0,-15.32845 -16.04696,6.7062 c -4.47299,1.63261 -5.27751,-3.33807 -6.70619,-7.18521 -6.31328,0.55118 -5.71321,4.06522 -4.55791,7.81722 -0.92644,11.89722 2.18941,8.97274 4.31839,9.66678 z"
       id="path3838-3-0-46-8"
       inkscape:connector-curvature="0"
       sodipodi:nodetypes="cccccccc" />
    <path
       style="fill:none;stroke:#000000;stroke-width:2;stroke-linecap:butt;stroke-linejoin:miter;stroke-miterlimit:4;stroke-opacity:1;stroke-dasharray:none"
       d="m 458.47455,195.00486 0,-26.46611"
       id="path6411"
       inkscape:connector-curvature="0"
       transform="translate(15.150972,27.257598)" />
    <path
       style="fill:none;stroke:#000000;stroke-width:2;stroke-linecap:butt;stroke-linejoin:miter;stroke-miterlimit:4;stroke-opacity:1;stroke-dasharray:none"
       d="m 471.09685,195.00486 0,-26.87328"
       id="path6413"
       inkscape:connector-curvature="0"
       transform="translate(15.150972,27.257598)" />
    <text
       xml:space="preserve"
       style="font-size:32px;font-style:normal;font-weight:normal;line-height:125%;letter-spacing:0px;word-spacing:0px;fill:#000000;fill-opacity:1;stroke:none;font-family:Sans"
       x="1027.6777"
       y="452.85437"
       id="text6415"
       sodipodi:linespacing="125%"><tspan
         sodipodi:role="line"
         id="tspan6417"
         x="1027.6777"
         y="452.85437">Resultant Force</tspan><tspan
         sodipodi:role="line"
         x="1027.6777"
         y="492.85437"
         id="tspan6425">Vector</tspan></text>
    <text
       xml:space="preserve"
       style="font-size:32px;font-style:normal;font-weight:normal;line-height:125%;letter-spacing:0px;word-spacing:0px;fill:#000000;fill-opacity:1;stroke:none;font-family:Sans"
       x="640.79352"
       y="630.38092"
       id="text6419"
       sodipodi:linespacing="125%"><tspan
         sodipodi:role="line"
         id="tspan6421"
         x="640.79352"
         y="630.38092">Main Engine</tspan><tspan
         sodipodi:role="line"
         x="640.79352"
         y="670.38092"
         id="tspan6423">Force Vector</tspan></text>
    <text
       xml:space="preserve"
       style="font-size:32px;font-style:normal;font-weight:normal;line-height:125%;letter-spacing:0px;word-spacing:0px;fill:#000000;fill-opacity:1;stroke:none;font-family:Sans"
       x="666.62457"
       y="77.801239"
       id="text6427"
       sodipodi:linespacing="125%"><tspan
         sodipodi:role="line"
         id="tspan6429"
         x="666.62457"
         y="77.801239">Thruster Force</tspan><tspan
         sodipodi:role="line"
         x="666.62457"
         y="117.80124"
         id="tspan6431">Vector</tspan></text>
    <path
       style="fill:none;stroke:#000000;stroke-width:4;stroke-linecap:butt;stroke-linejoin:miter;stroke-miterlimit:4;stroke-opacity:1;stroke-dasharray:none;marker-end:url(#marker6220)"
       d="M 1023.3064,456.11172 964.67375,443.08225"
       id="path6433"
       inkscape:connector-curvature="0" />
    <path
       style="fill:none;stroke:#000000;stroke-width:4;stroke-linecap:butt;stroke-linejoin:miter;stroke-miterlimit:4;stroke-opacity:1;stroke-dasharray:none;marker-end:url(#marker6220)"
       d="m 806.69139,597.80723 63.51869,-57.00394"
       id="path6655"
       inkscape:connector-curvature="0"
       sodipodi:nodetypes="cc" />
    <path
       style="fill:none;stroke:#000000;stroke-width:4;stroke-linecap:butt;stroke-linejoin:miter;stroke-miterlimit:4;stroke-opacity:1;stroke-dasharray:none;marker-end:url(#marker6220)"
       d="m 790.40456,104.31597 16.28684,53.74657"
       id="path6877"
       inkscape:connector-curvature="0" />
  </g>
</svg>
